<svg xmlns="http://www.w3.org/2000/svg" viewBox="0 0 50 50"><defs><style>.a{fill:#666;}</style></defs><title>blog</title><path class="a" d="M33,28.21H17a1,1,0,0,1-1-1v-18a1,1,0,0,1,1-1H33a1,1,0,0,1,1,1v18A1,1,0,0,1,33,28.21Zm-1-2v-16H18v16Zm-12-14h4v4H20Zm0,6H30v2H20Zm0,4H30v2H20Zm6-9h4v2H26Z"/><path class="a" d="M15.46,34.69a9.19,9.19,0,0,1,1.75-.15,3,3,0,0,1,2,.54,1.54,1.54,0,0,1,.61,1.3A1.75,1.75,0,0,1,18.61,38v0a1.9,1.9,0,0,1,1.53,1.85,2,2,0,0,1-.63,1.49,3.74,3.74,0,0,1-2.56.69A10.26,10.26,0,0,1,15.46,42Zm1,3h.87c1,0,1.61-.53,1.61-1.25s-.66-1.21-1.63-1.21a4.24,4.24,0,0,0-.85.07Zm0,3.55a5.35,5.35,0,0,0,.8,0c1,0,1.91-.37,1.91-1.45s-.87-1.43-1.92-1.43h-.79Z"/><path class="a" d="M21.39,34.2h1V42h-1Z"/><path class="a" d="M28.81,39.3a2.61,2.61,0,0,1-2.66,2.83,2.53,2.53,0,0,1-2.55-2.74,2.61,2.61,0,0,1,2.64-2.83A2.53,2.53,0,0,1,28.81,39.3Zm-4.23.06c0,1.16.67,2,1.62,2s1.62-.87,1.62-2.07c0-.9-.45-2-1.6-2S24.58,38.34,24.58,39.36Z"/><path class="a" d="M34.61,36.68c0,.39,0,.82,0,1.47v3.09a3,3,0,0,1-.76,2.43,2.84,2.84,0,0,1-1.94.64,3.52,3.52,0,0,1-1.77-.44l.25-.74a3,3,0,0,0,1.56.42c1,0,1.71-.52,1.71-1.86v-.6h0a1.89,1.89,0,0,1-1.69.89,2.38,2.38,0,0,1-2.27-2.59A2.56,2.56,0,0,1,32,36.56a1.76,1.76,0,0,1,1.66.93h0l.05-.81Zm-1,2.1a1.56,1.56,0,0,0,0-.44,1.4,1.4,0,0,0-1.35-1c-.93,0-1.59.78-1.59,2,0,1.05.53,1.92,1.57,1.92a1.43,1.43,0,0,0,1.35-1,1.86,1.86,0,0,0,.07-.52Z"/></svg>