<svg xmlns="http://www.w3.org/2000/svg" viewBox="0 0 50 50"><defs><style>.a{opacity:0.8;}.b{fill:#666;}</style></defs><g class="a"><path class="b" d="M16.57,41c0-.33,0-.82,0-1.25V33.91h.82v3h0A1.71,1.71,0,0,1,19,36.06c1.14,0,1.95,1,1.94,2.47,0,1.73-1,2.59-2.06,2.59a1.62,1.62,0,0,1-1.54-.91h0l0,.8Zm.86-1.94a1.65,1.65,0,0,0,0,.32,1.31,1.31,0,0,0,1.26,1c.87,0,1.39-.75,1.39-1.86s-.47-1.8-1.36-1.8a1.36,1.36,0,0,0-1.28,1.08,1.73,1.73,0,0,0-.05.36Z"/><path class="b" d="M22,33.91h.84V41H22Z"/><path class="b" d="M28.42,38.55a2.31,2.31,0,0,1-2.29,2.57,2.25,2.25,0,0,1-2.21-2.49,2.31,2.31,0,0,1,2.28-2.57A2.25,2.25,0,0,1,28.42,38.55Zm-3.65.05c0,1.06.58,1.86,1.4,1.86s1.39-.79,1.39-1.88c0-.82-.39-1.86-1.38-1.86S24.77,37.68,24.77,38.6Z"/><path class="b" d="M33.43,36.17c0,.35,0,.74,0,1.33v2.81a2.86,2.86,0,0,1-.66,2.21,2.36,2.36,0,0,1-1.67.58,2.85,2.85,0,0,1-1.53-.4l.21-.67a2.46,2.46,0,0,0,1.35.38c.85,0,1.48-.47,1.48-1.69v-.54h0A1.63,1.63,0,0,1,31.1,41a2.12,2.12,0,0,1-2-2.36c0-1.64,1-2.57,2.07-2.57a1.53,1.53,0,0,1,1.44.84h0l0-.73Zm-.86,1.91a1.25,1.25,0,0,0,0-.4,1.21,1.21,0,0,0-1.17-.93c-.8,0-1.37.71-1.37,1.83,0,1,.46,1.74,1.36,1.74a1.22,1.22,0,0,0,1.16-.9,1.53,1.53,0,0,0,.07-.47Z"/></g><path class="b" d="M16.65,24.67h7v1.39h-7Z"/><path class="b" d="M16.65,20.5h7v1.39h-7Z"/><path class="b" d="M32,17.71H18a1.39,1.39,0,0,1-1.39-1.39V12.14A1.39,1.39,0,0,1,18,10.75H32a1.39,1.39,0,0,1,1.39,1.39v4.18A1.39,1.39,0,0,1,32,17.71ZM18,12.14v4.18H32V12.14Z"/><path class="b" d="M32,27.46H27.78a1.4,1.4,0,0,1-1.39-1.4V21.89a1.39,1.39,0,0,1,1.39-1.39H32a1.39,1.39,0,0,1,1.39,1.39v4.17A1.4,1.4,0,0,1,32,27.46Zm-4.18-5.57v4.17H32V21.89Z"/></svg>