<svg xmlns="http://www.w3.org/2000/svg" viewBox="0 0 50 50"><defs><style>.a{fill:#666;}</style></defs><title>goals</title><path class="a" d="M25,26.21a8,8,0,1,0-8-8A8,8,0,0,0,25,26.21Zm0,2a10,10,0,1,1,10-10A10,10,0,0,1,25,28.21Zm0-6a4,4,0,1,0-4-4A4,4,0,0,0,25,22.21Zm0,2a6,6,0,1,1,6-6A6,6,0,0,1,25,24.21Zm0-4a2,2,0,1,1,2-2A2,2,0,0,1,25,20.21Z"/><path class="a" d="M18.75,41.68a7,7,0,0,1-2.27.4,3.8,3.8,0,0,1-2.78-1,3.82,3.82,0,0,1-1-2.76,3.72,3.72,0,0,1,4-3.83,4.46,4.46,0,0,1,1.85.35l-.23.78a3.76,3.76,0,0,0-1.64-.32,2.77,2.77,0,0,0-3,3,2.71,2.71,0,0,0,2.86,3,3.12,3.12,0,0,0,1.28-.2V38.88H16.31v-.77h2.44Z"/><path class="a" d="M25.06,39.3a2.61,2.61,0,0,1-2.66,2.83,2.53,2.53,0,0,1-2.55-2.74,2.61,2.61,0,0,1,2.64-2.83A2.53,2.53,0,0,1,25.06,39.3Zm-4.23.06c0,1.16.67,2,1.62,2s1.62-.87,1.62-2.07c0-.9-.46-2-1.6-2S20.83,38.34,20.83,39.36Z"/><path class="a" d="M29.22,42l-.07-.67h0a2,2,0,0,1-1.62.79,1.52,1.52,0,0,1-1.63-1.53c0-1.29,1.14-2,3.2-2v-.11a1.1,1.1,0,0,0-1.21-1.23,2.68,2.68,0,0,0-1.39.39L26.24,37A3.37,3.37,0,0,1,28,36.56c1.63,0,2,1.11,2,2.18v2A8.36,8.36,0,0,0,30.1,42Zm-.14-2.72c-1,0-2.25.16-2.25,1.2a.85.85,0,0,0,.91.92A1.34,1.34,0,0,0,29,40.52a1.12,1.12,0,0,0,0-.31Z"/><path class="a" d="M31.58,34.2h1V42h-1Z"/><path class="a" d="M34,41a2.62,2.62,0,0,0,1.28.38c.7,0,1-.35,1-.79s-.27-.72-1-1c-1-.34-1.41-.87-1.41-1.51a1.65,1.65,0,0,1,1.84-1.56,2.62,2.62,0,0,1,1.31.33l-.24.7a2.12,2.12,0,0,0-1.09-.3c-.57,0-.89.33-.89.72s.32.64,1,.91c.92.35,1.4.81,1.4,1.6s-.73,1.6-2,1.6a3,3,0,0,1-1.5-.37Z"/></svg>