<svg xmlns="http://www.w3.org/2000/svg" viewBox="0 0 50 50"><defs><style>.a{fill:#666;}</style></defs><title>me</title><path class="a" d="M16,11.2a2,2,0,0,1,2-2H32a2,2,0,0,1,2,2v14a2,2,0,0,1-2,2H18a2,2,0,0,1-2-2h0Zm2,0v14H32v-14Zm3,13.18a10.73,10.73,0,0,1-1.75-1,7,7,0,0,1,11.66-.16,10.72,10.72,0,0,1-1.72,1,5,5,0,0,0-8.19.11Zm4-5.18a3.5,3.5,0,1,1,3.5-3.5A3.5,3.5,0,0,1,25,19.21Zm0-2a1.5,1.5,0,1,0-1.5-1.5A1.5,1.5,0,0,0,25,17.21Z"/><path class="a" d="M24.87,38.75c-.05-1-.12-2.28-.11-3.2h0c-.25.87-.56,1.79-.93,2.82L22.49,42h-.73l-1.2-3.53c-.35-1-.65-2-.86-2.88h0c0,.92-.08,2.17-.14,3.28L19.34,42h-.91l.51-7.42h1.23l1.26,3.59c.31.91.56,1.73.75,2.5h0c.19-.75.45-1.57.78-2.5l1.32-3.59h1.22L26,42h-.94Z"/><path class="a" d="M28,39.52a1.71,1.71,0,0,0,1.83,1.85,3.38,3.38,0,0,0,1.47-.28l.17.7a4.4,4.4,0,0,1-1.77.33,2.48,2.48,0,0,1-2.62-2.69,2.58,2.58,0,0,1,2.49-2.87,2.26,2.26,0,0,1,2.2,2.51,4,4,0,0,1,0,.45Zm2.84-.69a1.38,1.38,0,0,0-1.34-1.58,1.62,1.62,0,0,0-1.49,1.58Z"/></svg>