<svg xmlns="http://www.w3.org/2000/svg" viewBox="0 0 50 50"><defs><style>.a{opacity:0.8;}.b{fill:#666;}</style></defs><g class="a"><path class="b" d="M19.35,37.48c0-.5,0-.91,0-1.31h.74l0,.78h0a1.59,1.59,0,0,1,1.45-.89,1.36,1.36,0,0,1,1.3,1h0a1.93,1.93,0,0,1,.51-.63,1.53,1.53,0,0,1,1-.34c.61,0,1.51.42,1.51,2.1V41H25.1V38.27c0-.93-.32-1.49-1-1.49a1.09,1.09,0,0,0-1,.8,1.45,1.45,0,0,0-.07.44v3h-.82v-2.9c0-.77-.32-1.33-1-1.33a1.15,1.15,0,0,0-1,.88,1.21,1.21,0,0,0-.07.43V41h-.82Z"/><path class="b" d="M27.74,38.75a1.51,1.51,0,0,0,1.58,1.68,2.86,2.86,0,0,0,1.27-.25l.15.63a3.59,3.59,0,0,1-1.53.3,2.2,2.2,0,0,1-2.27-2.44c0-1.46.82-2.61,2.16-2.61A2,2,0,0,1,31,38.34a3.32,3.32,0,0,1,0,.41Zm2.45-.63c0-.56-.22-1.43-1.16-1.43s-1.21.82-1.28,1.43Z"/></g><path class="b" d="M25,9.36a9.75,9.75,0,1,0,9.74,9.74A9.74,9.74,0,0,0,25,9.36Zm-4.18,17V24.94a2.25,2.25,0,0,1,2.09-2.36h4.18a2.26,2.26,0,0,1,2.09,2.36v1.4a8.33,8.33,0,0,1-8.36,0Zm9.75-1v-.42a3.63,3.63,0,0,0-3.48-3.7H22.91a3.63,3.63,0,0,0-3.48,3.7v.41a8.35,8.35,0,1,1,11.8-.66q-.32.34-.66.66Z"/><path class="b" d="M25,12.84a3.48,3.48,0,1,0,3.48,3.48A3.48,3.48,0,0,0,25,12.84Zm0,5.57a2.09,2.09,0,1,1,2.09-2.09A2.1,2.1,0,0,1,25,18.41Z"/></svg>