<svg xmlns="http://www.w3.org/2000/svg" viewBox="0 0 50 50"><defs><style>.a{opacity:0.8;}.b{fill:#666;}</style></defs><g class="a"><path class="b" d="M11.71,37.75c0-.62,0-1.12,0-1.58h.75l0,.83h0a1.81,1.81,0,0,1,1.64-.94c1.11,0,2,1,2,2.46,0,1.74-1,2.6-2.09,2.6a1.6,1.6,0,0,1-1.42-.76h0V43h-.83ZM12.54,39a2,2,0,0,0,0,.36,1.31,1.31,0,0,0,1.25,1c.89,0,1.4-.76,1.4-1.87s-.48-1.8-1.37-1.8a1.35,1.35,0,0,0-1.26,1.09,1.43,1.43,0,0,0-.06.36Z"/><path class="b" d="M17.12,33.91H18v3h0a1.6,1.6,0,0,1,.59-.62,1.69,1.69,0,0,1,.86-.25c.62,0,1.61.4,1.61,2.07V41H20.2V38.23c0-.78-.28-1.44-1.06-1.44a1.22,1.22,0,0,0-1.13.88,1.31,1.31,0,0,0-.05.42V41h-.84Z"/><path class="b" d="M26.56,38.55a2.31,2.31,0,0,1-2.29,2.57,2.25,2.25,0,0,1-2.21-2.49,2.31,2.31,0,0,1,2.28-2.57A2.25,2.25,0,0,1,26.56,38.55Zm-3.65.05c0,1.06.58,1.86,1.39,1.86s1.4-.79,1.4-1.88c0-.82-.39-1.86-1.38-1.86S22.91,37.68,22.91,38.6Z"/><path class="b" d="M28.62,34.78v1.39h1.19v.67H28.62v2.61c0,.6.16.94.62.94a1.84,1.84,0,0,0,.49-.06l0,.66a2,2,0,0,1-.75.12,1.12,1.12,0,0,1-.9-.37,1.85,1.85,0,0,1-.32-1.26V36.84h-.72v-.67h.72V35Z"/><path class="b" d="M34.86,38.55a2.31,2.31,0,0,1-2.29,2.57,2.25,2.25,0,0,1-2.21-2.49,2.31,2.31,0,0,1,2.28-2.57A2.24,2.24,0,0,1,34.86,38.55Zm-3.65.05c0,1.06.58,1.86,1.4,1.86S34,39.67,34,38.58c0-.82-.39-1.86-1.37-1.86S31.21,37.68,31.21,38.6Z"/><path class="b" d="M35.8,40.11a2.08,2.08,0,0,0,1.1.35c.61,0,.89-.32.89-.72s-.23-.65-.85-.89c-.83-.31-1.22-.79-1.22-1.37a1.45,1.45,0,0,1,1.59-1.42,2.23,2.23,0,0,1,1.13.3l-.21.64a1.71,1.71,0,0,0-.94-.28.68.68,0,0,0-.77.66c0,.4.27.58.87.82.8.32,1.21.74,1.21,1.46s-.63,1.45-1.72,1.45a2.51,2.51,0,0,1-1.29-.33Z"/></g><path class="b" d="M34.05,26.76H16a.69.69,0,0,1-.69-.7V14.23a.69.69,0,0,1,.69-.69h4.5l1.19-1.78a.7.7,0,0,1,.58-.31h5.56a.7.7,0,0,1,.58.31l1.19,1.78h4.5a.69.69,0,0,1,.69.69V26.06A.69.69,0,0,1,34.05,26.76Zm-17.4-1.39h16.7V14.93H29.18a.7.7,0,0,1-.58-.31l-1.19-1.78H22.59L21.4,14.62a.7.7,0,0,1-.58.31H16.65Z"/><path class="b" d="M25,24a4.18,4.18,0,1,1,4.18-4.18A4.18,4.18,0,0,1,25,24Zm0-7a2.78,2.78,0,1,0,2.78,2.78A2.77,2.77,0,0,0,25,17Z"/></svg>