<svg xmlns="http://www.w3.org/2000/svg" viewBox="0 0 50 50"><defs><style>.a{opacity:0.8;}.b{fill:#666;}</style></defs><g class="a"><path class="b" d="M9.7,37.75c0-.62,0-1.12,0-1.58h.75l0,.83h0a1.79,1.79,0,0,1,1.64-.94c1.11,0,1.94,1,1.94,2.46,0,1.74-1,2.6-2.09,2.6a1.57,1.57,0,0,1-1.41-.76h0V43H9.7ZM10.53,39a2,2,0,0,0,0,.36,1.3,1.3,0,0,0,1.25,1c.88,0,1.4-.76,1.4-1.87s-.49-1.8-1.37-1.8a1.37,1.37,0,0,0-1.27,1.09,2.08,2.08,0,0,0-.05.36Z"/><path class="b" d="M15.11,37.68c0-.57,0-1.06,0-1.51h.73l0,.95h0a1.39,1.39,0,0,1,1.27-1.06.93.93,0,0,1,.24,0v.83a1.23,1.23,0,0,0-.29,0A1.2,1.2,0,0,0,16,38a2.48,2.48,0,0,0,0,.41V41h-.82Z"/><path class="b" d="M22.28,38.55A2.31,2.31,0,0,1,20,41.12a2.25,2.25,0,0,1-2.21-2.49,2.32,2.32,0,0,1,2.29-2.57A2.24,2.24,0,0,1,22.28,38.55Zm-3.65.05c0,1.06.58,1.86,1.4,1.86s1.4-.79,1.4-1.88c0-.82-.39-1.86-1.38-1.86S18.63,37.68,18.63,38.6Z"/><path class="b" d="M22.21,42.41a1.31,1.31,0,0,0,.91-.37c.23-.28.32-.66.32-1.82v-4h.83v4.39a2.74,2.74,0,0,1-.55,2,2.06,2.06,0,0,1-1.42.55Zm2.16-7.6a.5.5,0,0,1-.52.54.51.51,0,0,1-.52-.54.53.53,0,0,1,.53-.55A.51.51,0,0,1,24.37,34.81Z"/><path class="b" d="M26.11,38.75a1.51,1.51,0,0,0,1.58,1.68A2.89,2.89,0,0,0,29,40.18l.14.63a3.56,3.56,0,0,1-1.53.3,2.19,2.19,0,0,1-2.26-2.44c0-1.46.82-2.61,2.16-2.61a2,2,0,0,1,1.9,2.28,3.32,3.32,0,0,1,0,.41Zm2.45-.63c0-.56-.22-1.43-1.16-1.43s-1.22.82-1.28,1.43Z"/><path class="b" d="M33.68,40.83a2.94,2.94,0,0,1-1.32.28,2.25,2.25,0,0,1-2.29-2.47,2.4,2.4,0,0,1,2.47-2.57,2.7,2.7,0,0,1,1.16.25l-.19.68a1.86,1.86,0,0,0-1-.23,1.83,1.83,0,0,0,0,3.64,2.29,2.29,0,0,0,1-.24Z"/><path class="b" d="M35.79,34.78v1.39H37v.67h-1.2v2.61c0,.6.16.94.63.94a1.76,1.76,0,0,0,.48-.06l0,.66a2,2,0,0,1-.74.12,1.15,1.15,0,0,1-.91-.37A1.9,1.9,0,0,1,35,39.48V36.84h-.71v-.67H35V35Z"/><path class="b" d="M37.81,40.11a2.11,2.11,0,0,0,1.1.35c.61,0,.9-.32.9-.72s-.24-.65-.86-.89c-.83-.31-1.22-.79-1.22-1.37a1.45,1.45,0,0,1,1.59-1.42,2.17,2.17,0,0,1,1.13.3l-.21.64a1.71,1.71,0,0,0-.94-.28.69.69,0,0,0-.77.66c0,.4.28.58.88.82.8.32,1.2.74,1.2,1.46s-.62,1.45-1.72,1.45a2.51,2.51,0,0,1-1.29-.33Z"/></g><path class="b" d="M21.68,23.41h6.64v1.33H21.68Z"/><path class="b" d="M23,26.06h4v1.33H23Z"/><path class="b" d="M25,8.82a6.63,6.63,0,0,0-6.63,6.63,6.11,6.11,0,0,0,2.29,5.06c.67.61,1,1,1,1.57H23a3.39,3.39,0,0,0-1.45-2.56,4.78,4.78,0,0,1-1.87-4.07,5.31,5.31,0,0,1,10.62,0,4.77,4.77,0,0,1-1.87,4.07A3.39,3.39,0,0,0,27,22.08h1.33c0-.61.35-1,1-1.58a6.1,6.1,0,0,0,2.29-5.05A6.63,6.63,0,0,0,25,8.82Z"/></svg>