<svg xmlns="http://www.w3.org/2000/svg" viewBox="0 0 50 50"><defs><style>.a{fill:#666;}</style></defs><title>projects</title><path class="a" d="M7.61,34.68a10.84,10.84,0,0,1,1.84-.14,3.09,3.09,0,0,1,2.08.61,2,2,0,0,1,.64,1.55,2.16,2.16,0,0,1-.57,1.59,3,3,0,0,1-2.26.81A3.59,3.59,0,0,1,8.57,39v3h-1Zm1,3.57a3,3,0,0,0,.79.08c1.15,0,1.86-.56,1.86-1.58s-.7-1.45-1.75-1.45a4.33,4.33,0,0,0-.9.07Z"/><path class="a" d="M13.25,38.34c0-.62,0-1.16,0-1.66h.85l0,1h0a1.61,1.61,0,0,1,1.48-1.17,1.12,1.12,0,0,1,.27,0v.92a1.57,1.57,0,0,0-.33,0,1.37,1.37,0,0,0-1.3,1.25,2.89,2.89,0,0,0,0,.45V42h-1Z"/><path class="a" d="M21.56,39.3a2.61,2.61,0,0,1-2.65,2.83,2.54,2.54,0,0,1-2.56-2.74A2.61,2.61,0,0,1,19,36.56,2.52,2.52,0,0,1,21.56,39.3Zm-4.23.06c0,1.16.67,2,1.62,2s1.62-.87,1.62-2.07c0-.9-.45-2-1.6-2S17.33,38.34,17.33,39.36Z"/><path class="a" d="M21.48,43.55a1.63,1.63,0,0,0,1.06-.41c.26-.31.36-.73.36-2V36.68h1v4.83a2.92,2.92,0,0,1-.64,2.19,2.45,2.45,0,0,1-1.65.61ZM24,35.19a.57.57,0,0,1-.61.59.58.58,0,0,1-.59-.59.59.59,0,0,1,.61-.61A.57.57,0,0,1,24,35.19Z"/><path class="a" d="M26,39.52a1.71,1.71,0,0,0,1.83,1.85,3.38,3.38,0,0,0,1.47-.28l.17.7a4.42,4.42,0,0,1-1.78.33,2.47,2.47,0,0,1-2.61-2.69,2.58,2.58,0,0,1,2.49-2.87,2.26,2.26,0,0,1,2.2,2.51,4,4,0,0,1,0,.45Zm2.84-.69a1.38,1.38,0,0,0-1.34-1.58A1.62,1.62,0,0,0,26,38.83Z"/><path class="a" d="M34.76,41.81a3.64,3.64,0,0,1-1.53.31,2.53,2.53,0,0,1-2.65-2.72,2.71,2.71,0,0,1,2.86-2.83,3.09,3.09,0,0,1,1.34.28l-.22.74a2.25,2.25,0,0,0-1.12-.25,1.84,1.84,0,0,0-1.88,2,1.82,1.82,0,0,0,1.84,2,2.74,2.74,0,0,0,1.19-.27Z"/><path class="a" d="M37.2,35.15v1.53h1.38v.74H37.2v2.87c0,.66.19,1,.72,1a2.28,2.28,0,0,0,.57-.07l0,.72a2.28,2.28,0,0,1-.86.14,1.35,1.35,0,0,1-1-.41,2,2,0,0,1-.38-1.39v-2.9h-.82v-.74h.82V35.41Z"/><path class="a" d="M39.54,41a2.62,2.62,0,0,0,1.28.38c.7,0,1-.35,1-.79s-.27-.72-1-1c-1-.34-1.41-.87-1.41-1.51a1.65,1.65,0,0,1,1.84-1.56,2.62,2.62,0,0,1,1.31.33l-.24.7a2.12,2.12,0,0,0-1.09-.3c-.57,0-.89.33-.89.72s.32.64,1,.91c.92.35,1.4.81,1.4,1.6s-.73,1.6-2,1.6a3,3,0,0,1-1.5-.37Z"/><path class="a" d="M25,25.11l-7,3.95,1.57-7.93-5.93-5.49,8-1L25,7.35l3.39,7.34,8,1-5.93,5.49,1.57,7.93Zm0-2.29,4.25,2.38-.95-4.78,3.57-3.3L27,16.55l-2-4.42-2,4.42-4.83.57,3.57,3.3-.95,4.78Z"/></svg>