<svg xmlns="http://www.w3.org/2000/svg" viewBox="0 0 50 50"><defs><style>.a{fill:#666;}.b{opacity:0.8;}</style></defs><path class="a" d="M25,22.28a2.79,2.79,0,1,0-2.78-2.78A2.78,2.78,0,0,0,25,22.28Zm0-4.18a1.4,1.4,0,1,1-1.39,1.4A1.4,1.4,0,0,1,25,18.1Z"/><path class="a" d="M23.61,11.14h2.78v1.4H23.61Z"/><path class="a" d="M30.57,8.36H19.43A1.39,1.39,0,0,0,18,9.75V26.46a1.39,1.39,0,0,0,1.39,1.39H30.57A1.39,1.39,0,0,0,32,26.46V9.75A1.39,1.39,0,0,0,30.57,8.36Zm-2.79,18.1H22.22v-1.4a.69.69,0,0,1,.69-.69h4.18a.69.69,0,0,1,.69.69Zm1.4,0v-1.4A2.09,2.09,0,0,0,27.09,23H22.91a2.09,2.09,0,0,0-2.09,2.08v1.4H19.43V9.75H30.57V26.46Z"/><g class="b"><path class="a" d="M11,37.68c0-.57,0-1.06,0-1.51h.73l0,.95h0A1.39,1.39,0,0,1,13,36.06a.83.83,0,0,1,.24,0v.83a1.14,1.14,0,0,0-.28,0A1.21,1.21,0,0,0,11.83,38c0,.12,0,.26,0,.41V41H11Z"/><path class="a" d="M14.45,38.75A1.51,1.51,0,0,0,16,40.43a2.94,2.94,0,0,0,1.28-.25l.14.63a3.56,3.56,0,0,1-1.53.3,2.19,2.19,0,0,1-2.26-2.44c0-1.46.82-2.61,2.16-2.61a2,2,0,0,1,1.9,2.28,3.32,3.32,0,0,1,0,.41Zm2.45-.63c0-.56-.22-1.43-1.16-1.43s-1.22.82-1.28,1.43Zm.2-4-1.16,1.43h-.6l.84-1.43Z"/><path class="a" d="M18.63,40.11a2.08,2.08,0,0,0,1.1.35c.61,0,.89-.32.89-.72s-.24-.65-.85-.89c-.83-.31-1.22-.79-1.22-1.37a1.45,1.45,0,0,1,1.59-1.42,2.23,2.23,0,0,1,1.13.3l-.21.64a1.71,1.71,0,0,0-.94-.28.68.68,0,0,0-.77.66c0,.4.27.58.87.82.8.32,1.21.74,1.21,1.46s-.63,1.45-1.72,1.45a2.51,2.51,0,0,1-1.29-.33Z"/><path class="a" d="M26.35,39.69c0,.5,0,.94,0,1.32h-.74l0-.79h0a1.72,1.72,0,0,1-1.52.9c-.72,0-1.59-.42-1.59-2.12V36.17h.84v2.68c0,.92.27,1.54,1,1.54a1.21,1.21,0,0,0,1.1-.8,1.29,1.29,0,0,0,.08-.45v-3h.83Z"/><path class="a" d="M27.74,37.48c0-.5,0-.91,0-1.31h.73l0,.78h0a1.56,1.56,0,0,1,1.44-.89,1.36,1.36,0,0,1,1.3,1h0a2.09,2.09,0,0,1,.52-.63,1.5,1.5,0,0,1,1-.34c.61,0,1.52.42,1.52,2.1V41h-.82V38.27c0-.93-.32-1.49-1-1.49a1.09,1.09,0,0,0-1,.8,1.45,1.45,0,0,0-.07.44v3h-.81v-2.9c0-.77-.33-1.33-1-1.33a1.15,1.15,0,0,0-1,.88,1.21,1.21,0,0,0-.07.43V41h-.81Z"/><path class="a" d="M36.12,38.75a1.52,1.52,0,0,0,1.58,1.68A2.94,2.94,0,0,0,39,40.18l.14.63a3.56,3.56,0,0,1-1.53.3,2.19,2.19,0,0,1-2.26-2.44c0-1.46.81-2.61,2.15-2.61a2,2,0,0,1,1.91,2.28,3.32,3.32,0,0,1,0,.41Zm2.46-.63c0-.56-.22-1.43-1.16-1.43s-1.22.82-1.29,1.43Zm.2-4-1.16,1.43H37l.84-1.43Z"/></g></svg>