<svg xmlns="http://www.w3.org/2000/svg" viewBox="0 0 50 50"><defs><style>.a{fill:#666;}.b{opacity:0.8;}</style></defs><path class="a" d="M32.36,12.24a4.89,4.89,0,0,0-6.91-.06l-.32.34a5,5,0,0,0-.53.77,4.41,4.41,0,0,0-.38.86,5,5,0,0,0-.21.95,3.91,3.91,0,0,0,0,.49,5.3,5.3,0,0,1-.75-.12A7.09,7.09,0,0,1,22,15.05a14.11,14.11,0,0,1-5.15-4c-1.63,3.94-1.4,6.75-.52,8.74a5.59,5.59,0,0,0,.3.6,2.54,2.54,0,0,0,.16.28c.11.18.22.35.34.52a6.27,6.27,0,0,0,.55.68c.12.14.24.27.37.4l.19.19a13.19,13.19,0,0,0,1.87,1.41A11.53,11.53,0,0,1,15,25.39c1.36,1.42,6.11,2.49,9.38,1.84,4.77-.95,9.47-4.67,9.47-12.31a5.4,5.4,0,0,0,.87-1.81c0-.14.07-.29.11-.45.07-.31.14-.66.23-1.07A3.9,3.9,0,0,1,32.36,12.24Zm-8.3,13.52a9.58,9.58,0,0,1-1.86.17l-.86,0L20,25.81l2.71-2,0-.08h0s-.05-.06-.09-.09l-1.74-1.08c-3.09-1.95-4.24-4.45-3.61-7.9l.15-.85.66.56a11.21,11.21,0,0,0,5.66,2.69l1.56.22a.12.12,0,0,0,.11-.11l0-1.57a3.34,3.34,0,0,1,.28-1.3,5.67,5.67,0,0,1,.31-.55,2.75,2.75,0,0,1,.44-.52,3.33,3.33,0,0,1,2.37-1,3.49,3.49,0,0,1,3.44,2.64C32.32,20.77,29.31,24.72,24.06,25.76Z"/><g class="b"><path class="a" d="M13.43,34.78v1.39h1.19v.67H13.43v2.61c0,.6.16.94.62.94a1.84,1.84,0,0,0,.49-.06l0,.66a2,2,0,0,1-.75.12,1.14,1.14,0,0,1-.9-.37,1.85,1.85,0,0,1-.32-1.26V36.84H11.9v-.67h.71V35Z"/><path class="a" d="M16,36.17l.61,2.46c.13.54.26,1,.34,1.54h0c.1-.49.26-1,.41-1.53l.75-2.47h.7l.72,2.42c.17.58.3,1.09.41,1.58h0a14.37,14.37,0,0,1,.36-1.57L21,36.17h.83L20.33,41h-.77l-.7-2.31c-.16-.54-.29-1-.41-1.59h0a14.37,14.37,0,0,1-.41,1.6L17.27,41h-.76l-1.39-4.84Z"/><path class="a" d="M23,38.75a1.51,1.51,0,0,0,1.58,1.68,2.86,2.86,0,0,0,1.27-.25l.15.63a3.61,3.61,0,0,1-1.54.3,2.2,2.2,0,0,1-2.26-2.44c0-1.46.82-2.61,2.16-2.61a2,2,0,0,1,1.9,2.28,3.32,3.32,0,0,1,0,.41Zm2.45-.63c0-.56-.21-1.43-1.16-1.43s-1.21.82-1.28,1.43Z"/><path class="a" d="M27.77,38.75a1.51,1.51,0,0,0,1.58,1.68,2.86,2.86,0,0,0,1.27-.25l.14.63a3.52,3.52,0,0,1-1.53.3A2.2,2.2,0,0,1,27,38.67c0-1.46.82-2.61,2.16-2.61A2,2,0,0,1,31,38.34a3.32,3.32,0,0,1,0,.41Zm2.45-.63c0-.56-.22-1.43-1.16-1.43s-1.21.82-1.28,1.43Z"/><path class="a" d="M33.07,34.78v1.39h1.2v.67h-1.2v2.61c0,.6.16.94.63.94a1.7,1.7,0,0,0,.48-.06l0,.66a2,2,0,0,1-.74.12,1.12,1.12,0,0,1-.9-.37,1.85,1.85,0,0,1-.33-1.26V36.84h-.71v-.67h.71V35Z"/><path class="a" d="M35.09,40.11a2.15,2.15,0,0,0,1.11.35c.61,0,.89-.32.89-.72s-.24-.65-.85-.89c-.83-.31-1.22-.79-1.22-1.37a1.45,1.45,0,0,1,1.59-1.42,2.23,2.23,0,0,1,1.13.3l-.21.64a1.74,1.74,0,0,0-.94-.28.68.68,0,0,0-.77.66c0,.4.27.58.87.82.8.32,1.21.74,1.21,1.46s-.63,1.45-1.72,1.45a2.55,2.55,0,0,1-1.3-.33Z"/></g></svg>