<svg xmlns="http://www.w3.org/2000/svg" viewBox="0 0 50 50"><defs><style>.a{fill:#666;}</style></defs><title>updates</title><path class="a" d="M28.88,11.88A2.9,2.9,0,0,0,26,14.73l0,1.58a.59.59,0,0,1-.61.58h-.07l-1.56-.21a11.72,11.72,0,0,1-5.91-2.8c-.6,3.31.57,5.6,3.38,7.37l1.75,1.1a.58.58,0,0,1,0,1L21.37,24.5A10.19,10.19,0,0,0,24,24.37c4.72-.94,7.86-4.49,7.86-10.35A3,3,0,0,0,28.88,11.88ZM24,14.69a4.89,4.89,0,0,1,8.38-3.35A3.9,3.9,0,0,0,35,10.69,7.17,7.17,0,0,1,33.82,14c0,7.65-4.7,11.36-9.47,12.31-3.26.66-8-.42-9.38-1.84a11.4,11.4,0,0,0,5.15-1.55c-1.38-.91-6.87-4.14-3.27-12.82a14.15,14.15,0,0,0,5.15,4,5.89,5.89,0,0,0,2,.53Z"/><path class="a" d="M7.65,34.59V39c0,1.66.74,2.37,1.73,2.37s1.81-.73,1.81-2.37V34.59h1v4.33c0,2.27-1.2,3.21-2.8,3.21S6.69,41.26,6.69,39V34.59Z"/><path class="a" d="M13.78,38.42c0-.68,0-1.23,0-1.74h.87l0,.91h0a2.11,2.11,0,0,1,1.89-1c1.29,0,2.26,1.09,2.26,2.71,0,1.91-1.17,2.86-2.42,2.86a1.86,1.86,0,0,1-1.64-.84h0v2.9h-1Zm1,1.42a2.58,2.58,0,0,0,0,.4,1.5,1.5,0,0,0,1.45,1.13c1,0,1.62-.84,1.62-2.06s-.56-2-1.58-2a1.55,1.55,0,0,0-1.47,1.2,1.68,1.68,0,0,0-.06.4Z"/><path class="a" d="M24.64,34.2v6.43c0,.47,0,1,0,1.38h-.87l0-.93h0a2,2,0,0,1-1.82,1.05,2.43,2.43,0,0,1-2.28-2.71c0-1.77,1.09-2.86,2.39-2.86a1.78,1.78,0,0,1,1.61.82h0V34.2Zm-1,4.65a1.9,1.9,0,0,0,0-.41,1.43,1.43,0,0,0-1.4-1.12c-1,0-1.6.88-1.6,2.06s.53,2,1.58,2a1.46,1.46,0,0,0,1.42-1.16,1.82,1.82,0,0,0,0-.42Z"/><path class="a" d="M29.19,42l-.08-.67h0a2,2,0,0,1-1.63.79,1.52,1.52,0,0,1-1.62-1.53c0-1.29,1.14-2,3.2-2v-.11a1.1,1.1,0,0,0-1.21-1.23,2.66,2.66,0,0,0-1.39.39L26.21,37A3.37,3.37,0,0,1,28,36.56c1.63,0,2,1.11,2,2.18v2A8.29,8.29,0,0,0,30.07,42Zm-.14-2.72c-1.06,0-2.26.16-2.26,1.2a.85.85,0,0,0,.92.92A1.31,1.31,0,0,0,29,40.52a.85.85,0,0,0,.06-.31Z"/><path class="a" d="M32.67,35.15v1.53h1.38v.74H32.67v2.87c0,.66.18,1,.72,1a2.19,2.19,0,0,0,.56-.07L34,42a2.32,2.32,0,0,1-.86.14,1.38,1.38,0,0,1-1-.41,2,2,0,0,1-.37-1.39v-2.9H30.9v-.74h.82V35.41Z"/><path class="a" d="M35.62,39.52a1.7,1.7,0,0,0,1.82,1.85,3.46,3.46,0,0,0,1.48-.28l.16.7a4.36,4.36,0,0,1-1.77.33,2.48,2.48,0,0,1-2.62-2.69,2.59,2.59,0,0,1,2.5-2.87,2.26,2.26,0,0,1,2.2,2.51,4,4,0,0,1,0,.45Zm2.83-.69a1.38,1.38,0,0,0-1.34-1.58,1.6,1.6,0,0,0-1.48,1.58Z"/><path class="a" d="M40.46,41a2.58,2.58,0,0,0,1.27.38c.71,0,1-.35,1-.79s-.27-.72-1-1c-1-.34-1.41-.87-1.41-1.51a1.64,1.64,0,0,1,1.83-1.56,2.6,2.6,0,0,1,1.31.33l-.24.7a2.09,2.09,0,0,0-1.09-.3c-.57,0-.89.33-.89.72s.32.64,1,.91c.93.35,1.4.81,1.4,1.6s-.73,1.6-2,1.6a3.08,3.08,0,0,1-1.5-.37Z"/></svg>